<svg xmlns="http://www.w3.org/2000/svg" viewBox="0 0 210.29 210.99"><defs><style>.cls-1{fill:none;stroke:#fff;stroke-miterlimit:10;stroke-width:9px;}</style></defs><g id="レイヤー_2" data-name="レイヤー 2"><g id="_饑1" data-name="ﾑ饑1"><path class="cls-1" d="M92,118.32C78,104.39,66.66,90,58.7,76.92L79.87,55.76a14.21,14.21,0,0,0,0-20.1L54.63,10.43C42.34-1.86,20.92,5.35,10.75,28.51-10.19,76.17,25.56,120,57.93,152.36c34.42,34.43,73.45,69.32,123.85,47.18C205,189.37,212.16,168,199.87,155.66l-25.24-25.24a14.21,14.21,0,0,0-20.1,0l-21.16,21.17C120.29,143.63,105.9,132.25,92,118.32Z"/></g></g></svg>