<?xml version="1.0" encoding="UTF-8"?><svg id="_レイヤー_2" xmlns="http://www.w3.org/2000/svg" viewBox="0 0 168 36.34"><defs><style>.cls-1{fill:#865f26;}</style></defs><g id="_レイヤー_1-2"><path class="cls-1" d="m11.86,0C6.33,0,0,6.57,0,18.5c0,10.54,6.19,17.84,11.86,17.84,6.04,0,12.1-7.45,12.1-17.84C23.95,7.2,18.06,0,11.86,0Zm.18,35.53c-5.47,0-10.07-7.59-10.07-17.02C1.97,7.96,6.55.81,12.02.81s9.96,7.71,9.96,17.69-4.82,17.02-9.94,17.02Z"/><path class="cls-1" d="m18.57,7.52c-1.1-1.9-3.11-4.97-6.58-5.02-3.31-.05-5.54,2.87-6.84,5.36-1.3,2.49-2.01,6.08-2.17,9.56-.17,3.66.75,7.98,1.97,10.39-.96-2.54-1.51-7.34-1.41-10.35.14-4.29,1.17-7.37,2.25-9.47,1.03-2.01,3.17-4.93,6.19-4.93,2.33,0,4.07,1.86,4.38,2.25.59.41,1.73,1.51,2.22,2.2Z"/><path class="cls-1" d="m19.17,10.4c1.77,3.39,2.12,8.28,1.5,11.97-.97,5.75-3.58,9.63-6.38,10.88-2.1.94-4.38.51-5.8-.62-.19-.22-1.3-1.66-1.66-2.54,1.3,1.68,2.78,3.09,5.31,3.08,2.6,0,4.6-2.25,5.65-4.17.67-1.24,1.86-3.7,2.26-6.7.4-3,.75-7.23-.88-11.89Z"/><path class="cls-1" d="m13.06,7.34c.41-.69.15-1.43-.7-1.47-.84-.04-1.4.49-1.74,1.22-.38.81-.48,3.52-.48,4.26.33.07,1.69.05,2.09,0,.07.16.06.39-.11.48-.25.14-1.12.1-1.98-.03,0,.44-.37,5.46-.59,6.37-.22.91-.77,3.63-2.91,3.84-1.6.16-1.94-.61-1.89-1.04.04-.33.45-.49.64-.5.28.61.65.89,1.43.84,1.06-.07,1.67-1.03,1.92-3.33.24-2.29.21-5.8.27-6.19-.52-.07-1.2.09-1.43.14.1-.46.78-.65,1.43-.59.06-2.24.44-4.05,1.3-5.03.68-.77,1.24-1,2.28-1,.85,0,2.26.84,1.51,1.83-.24.32-.74.28-1.06.19Z"/><path class="cls-1" d="m16.75,19.02h.46c.06-.38.45-2.31.45-2.73-.33-.62-1.51-.99-2.7-.63-1.51.45-3.21,2.9-2.72,5.37.32,1.61,2.51,2.53,2.93,3.62.54,1.42-.45,3.32-1.44,3.82-.74.37-1.59.14-1.94-.11s-.39-.5-.45-.66c-.15-.61.05-1.72.11-1.99h-.4c-.11.68-.41,2.25-.54,2.85.1.86,1.88,1.06,3.21.6,1.39-.49,2.73-2.43,2.73-4.64s-2.54-3.02-2.99-4.16c-.68-1.72.32-3.84,1.96-4.09,1.62-.24,1.55,2.01,1.32,2.74Z"/><path class="cls-1" d="m32.41,10.83c0-.73-.03-3.08-.03-3.28,0-.32-.23-.48-.68-.48h-.96c-.07,0-.12-.03-.12-.1v-.45c0-.07.05-.1.12-.1.1,0,.3.02.68.02.38.02.95.03,1.75.03.28,0,6.12.02,6.38-.07.05.28.55,2.53.66,2.96.02.07,0,.1-.03.12l-.3.12s-.08-.02-.13-.12c-.15-.27-.58-.88-1.06-1.53-.28-.38-.68-.67-1.16-.78-.42-.1-3.06-.15-3.56-.15,0,.22-.02,3.56-.02,4.58v.83c.23,0,1.98-.05,2.18-.08.37-.07.58-.22.73-.73.05-.17.12-.52.17-.82.02-.07.05-.12.12-.12l.33.02c.07,0,.1.05.1.12-.03.28-.03,1.66-.03,1.9,0,.6.05,1.4.08,1.73,0,.08-.03.12-.12.13l-.32.07c-.08.02-.1-.03-.12-.12-.02-.13-.13-.63-.18-.82-.12-.4-.32-.6-.68-.65-.78-.1-2-.1-2.26-.1v.62c0,.5.02,3.3.02,3.54,0,.45.08.53.65.53h.81c.1,0,.15.03.15.1v.42c0,.1-.03.13-.13.13-.17,0-.83-.05-2.26-.05-1.3,0-1.93.05-2.18.05-.07,0-.1-.03-.1-.12v-.45c0-.07.05-.08.12-.08h.75c.43,0,.57-.07.58-.37.03-.33.07-2.43.07-5.29v-1.16Z"/><path class="cls-1" d="m44.1,17.42c-1.18-.72-2.44-2.51-2.44-4.94,0-1.02.27-2.6,1.55-4.14,1.46-1.78,3.11-2.11,4.51-2.11,1.05,0,2.41.22,3.72,1.31,1.21,1.05,2.28,2.68,2.28,4.98,0,1.21-.38,2.48-1.25,3.64-1.01,1.35-2.49,2.35-4.79,2.35-.81,0-2.26-.27-3.57-1.08Zm7.98-4.78c0-3.64-2.59-5.79-4.44-5.79-.25,0-1.38-.2-2.63.98-1.11,1.07-1.66,2.75-1.66,4.11,0,4.38,3.04,5.93,4.46,5.93,3.66,0,4.27-3.74,4.27-5.23Z"/><path class="cls-1" d="m59.24,18.15c-1.13-.45-1.71-1.18-1.98-2.23-.2-.75-.27-1.86-.27-4.04v-3.96c0-.58-.12-.85-.63-.85h-.78c-.1,0-.12-.03-.12-.15v-.37c0-.1.02-.13.15-.13.17,0,.98.05,2.28.05s2.09-.05,2.28-.05c.13,0,.15.03.15.1v.43c0,.08-.02.12-.13.12h-.83c-.48,0-.76.32-.8.68-.02.15-.03,1.31-.03,2.16v1.1c0,.88.07,3,.08,3.53.02.77.15,1.55.53,2.11.62.9,1.68,1.2,2.64,1.2s1.91-.32,2.49-.92c.65-.7.86-1.7.86-2.93v-3.56c0-1.26-.03-2.23-.08-2.65-.05-.43-.32-.73-.75-.73h-.73c-.1,0-.12-.05-.12-.13v-.4c0-.08.02-.12.12-.12.17,0,.93.05,2.04.05s1.68-.05,1.83-.05.17.07.17.12v.37c0,.1-.02.17-.1.17h-.68c-.62,0-.66.47-.71.67-.03.17-.03,2.53-.03,2.76s-.03,3.15-.08,3.79c-.1,1.36-.47,2.41-1.4,3.21-.67.62-1.68,1-3.13,1-.86,0-1.7-.12-2.24-.35Z"/><path class="cls-1" d="m70.88,10.68c0-1.23,0-2.3-.02-2.78-.02-.55-.22-.83-.63-.83h-.67c-.08,0-.1-.05-.1-.12v-.42c0-.08.02-.12.1-.12.15,0,.67.05,2.06.05.93,0,2.48-.05,2.78-.05,1.38,0,2.48.42,3.11,1.02.55.53.86,1.28.86,1.9,0,2.08-.95,2.86-3.08,3.33v.03c.4.15.63.45.76.63.2.22,1.38,1.91,1.51,2.13.08.17,1.15,1.68,1.46,1.91.35.25.73.28,1.2.28.12,0,.13.07.13.13v.37c0,.1-.02.15-.13.15-.13,0-.57-.05-1.3-.05-.48,0-1.1.03-1.35.05-.18-.17-.55-.73-.7-.95-.13-.2-1.03-1.78-1.11-1.91-.07-.12-.86-1.31-1.06-1.55-.43-.52-.83-.97-1.8-.97-.15,0-.32,0-.55.05v.93c0,.98.02,2.85.03,3.1.03.35.17.65.42.65h1.05c.12,0,.13.05.13.13v.37c0,.12-.02.15-.18.15-.18,0-.6-.05-2.18-.05s-1.9.05-2.08.05c-.13,0-.13-.05-.13-.13v-.38c0-.08,0-.13.08-.13h.68c.37,0,.65-.12.65-.57.03-1.65.03-3.21.03-4.79v-1.61Zm1.5,1.65c.25.05.43.07.75.07,3.03,0,3.61-2.08,3.61-2.78,0-.77-.35-1.5-.83-1.9-.65-.52-1.38-.77-2.76-.77-.2,0-.42.03-.57.13-.12.08-.2.27-.2.53v4.71Z"/><path class="cls-1" d="m87.84,17.64c-.2-.15-.3-.2-.38-.2-.1,0-.17.12-.27.28-.1.18-.18.2-.3.2-.1,0-.18-.08-.15-.27.07-.42.23-2.53.28-3.01.02-.1.05-.1.12-.1l.25.02c.07,0,.1.03.1.13.02.53.05,1.08.6,1.93.5.78,1.41,1.23,2.33,1.23,1,0,2.26-.62,2.26-2.11,0-1.71-1.23-2.35-2.56-2.81-.52-.18-1.71-.6-2.43-1.35-.55-.55-.83-1.33-.83-2.43,0-.83.52-1.65,1.03-2.13.6-.57,1.43-.8,2.33-.8.95,0,1.68.28,1.96.42.15.08.23.07.32-.02l.22-.2c.08-.07.13-.1.22-.1s.13.13.13.28c0,.58.22,2.28.23,2.65,0,.08-.02.12-.08.13l-.2.05s-.08,0-.1-.05c-.13-.48-.35-1.13-1.03-1.85-.45-.48-1.03-.72-1.81-.72-1.48,0-2.01,1.1-2.01,1.95,0,.47.1,1.02.52,1.45.48.48,1.41.85,1.9,1,1.15.37,2.08.65,2.68,1.38.43.52.73,1.17.73,2.26,0,1.96-1.2,3.64-3.39,3.64-1.16,0-1.98-.35-2.64-.87Z"/><path class="cls-1" d="m99.53,11.88c.13,0,1.91-.07,2.11-.1.48-.08.62-.22.76-.73.05-.17.12-.5.13-.82,0-.08.05-.12.12-.12l.42.02c.08,0,.12.07.1.13-.05.28-.05,1.65-.05,1.9,0,.58.07,1.38.1,1.73,0,.08-.03.12-.1.13l-.37.05c-.08.02-.12-.03-.13-.15-.03-.22-.13-.6-.18-.78-.1-.35-.28-.6-.71-.65-.78-.08-1.93-.08-2.19-.08v1.03c0,.9.03,2.51.03,2.85.02.87.43,1.2.95,1.3.33.07.81.12,1.23.12.28,0,1.11-.02,1.46-.05.28-.03,1.01-.22,1.45-.58.2-.17,1.13-1.36,1.36-1.75.05-.08.1-.15.2-.1l.27.15c.08.05.08.1.03.23l-.88,2.45c-.05.15-.17.25-.37.25-.08,0-.45-.02-1.45-.03-1,0-2.61-.02-5.2-.02-.62,0-1.08.02-1.41.02-.35.02-.57.03-.71.03-.1,0-.15-.03-.15-.12v-.45c0-.07.05-.08.17-.08h.66c.76,0,.83-.12.83-.73v-5.58c0-1.38-.03-3.46-.05-3.63-.07-.53-.23-.65-.85-.65h-.6c-.08,0-.13-.02-.13-.12v-.45s.03-.08.12-.08c.37,0,.95.05,2.05.05h.73c1.65,0,3.29-.02,4.94-.02.27,0,.58-.03.67-.03s.12.03.13.08c.07.23.8,2.51.85,2.68.02.07.02.12-.05.15l-.25.13s-.12-.02-.13-.05c-.03-.07-1.26-1.65-1.66-1.9-.35-.23-.81-.43-1.26-.45l-2.96-.07v4.88Z"/><path class="cls-1" d="m111.52,13.63c-.17.42-1.08,2.95-1.16,3.3-.02.12-.05.28-.05.37,0,.23.2.37.57.37h.78c.12,0,.17.03.17.12v.38c0,.12-.05.15-.13.15-.23,0-.91-.05-1.9-.05-1.21,0-1.58.05-1.81.05-.08,0-.12-.03-.12-.13v-.4c0-.08.07-.12.13-.12h.58c.5,0,.73-.23.96-.77.12-.27,1.33-3.35,1.81-4.71.12-.33,1.46-3.91,1.61-4.36.05-.17.13-.38.02-.57-.05-.07-.12-.15-.12-.22,0-.05.03-.12.15-.15.47-.1,1.2-.6,1.38-.83.08-.08.13-.15.22-.15.1,0,.13.1.18.28.32,1.05,1.61,4.78,1.93,5.84.38,1.3,1.46,4.39,1.7,4.88.28.55.71.75,1.13.75h.55c.1,0,.13.05.13.12v.42c0,.08-.05.12-.17.12-.3,0-.65-.05-2-.05s-1.96.05-2.34.05c-.08,0-.13-.05-.13-.15v-.38c0-.1.05-.12.15-.12h.42c.47,0,.61-.17.5-.63-.13-.6-.81-2.73-1.05-3.4h-4.09Zm3.89-.6c-.15-.5-1.5-4.66-1.58-4.91-.05-.12-.08-.23-.13-.23-.07,0-.13.12-.18.25-.08.22-1.66,4.48-1.78,4.89h3.67Z"/><path class="cls-1" d="m123.27,17.64c-.2-.15-.3-.2-.38-.2-.1,0-.17.12-.27.28-.1.18-.18.2-.3.2-.1,0-.18-.08-.15-.27.07-.42.23-2.53.28-3.01.02-.1.05-.1.12-.1l.25.02c.07,0,.1.03.1.13.02.53.05,1.08.6,1.93.5.78,1.41,1.23,2.33,1.23,1,0,2.26-.62,2.26-2.11,0-1.71-1.23-2.35-2.56-2.81-.52-.18-1.71-.6-2.43-1.35-.55-.55-.83-1.33-.83-2.43,0-.83.52-1.65,1.03-2.13.6-.57,1.43-.8,2.33-.8.95,0,1.68.28,1.96.42.15.08.23.07.32-.02l.22-.2c.08-.07.13-.1.22-.1s.13.13.13.28c0,.58.22,2.28.23,2.65,0,.08-.02.12-.08.13l-.2.05s-.08,0-.1-.05c-.13-.48-.35-1.13-1.03-1.85-.45-.48-1.03-.72-1.81-.72-1.48,0-2.01,1.1-2.01,1.95,0,.47.1,1.02.52,1.45.48.48,1.41.85,1.9,1,1.15.37,2.08.65,2.68,1.38.43.52.73,1.17.73,2.26,0,1.96-1.2,3.64-3.39,3.64-1.16,0-1.98-.35-2.64-.87Z"/><path class="cls-1" d="m134.25,17.42c-1.18-.72-2.44-2.51-2.44-4.94,0-1.02.27-2.6,1.55-4.14,1.46-1.78,3.11-2.11,4.51-2.11,1.05,0,2.41.22,3.72,1.31,1.21,1.05,2.28,2.68,2.28,4.98,0,1.21-.38,2.48-1.25,3.64-1.01,1.35-2.49,2.35-4.79,2.35-.81,0-2.26-.27-3.57-1.08Zm7.98-4.78c0-3.64-2.59-5.79-4.44-5.79-.25,0-1.38-.2-2.63.98-1.11,1.07-1.66,2.75-1.66,4.11,0,4.38,3.04,5.93,4.46,5.93,3.66,0,4.27-3.74,4.27-5.23Z"/><path class="cls-1" d="m147.73,8.63c0-.98-.5-1.53-1.1-1.55l-.68-.02c-.08,0-.1-.07-.1-.12v-.43c0-.07.02-.1.1-.1s.22.02.47.02c.25.02.62.03,1.18.03s.91-.03,1.11-.03c.22,0,.35.07.48.22.08.1,3.31,4.29,3.49,4.53.18.23,2.99,3.68,3.39,4.21h.07v-1.98c0-1.48-.02-2.3-.05-3.13-.02-.65-.1-2.28-.2-2.56-.13-.42-.45-.65-.91-.65h-.53c-.07,0-.1-.03-.1-.12v-.43c0-.07.03-.1.1-.1.23,0,.76.05,1.83.05,1,0,1.4-.05,1.61-.05.12,0,.13.05.13.12v.42c0,.07-.03.12-.1.12h-.45c-.45,0-.62.28-.65.92-.07,1.12-.07,2.76-.07,3.84v6.22c0,.23-.02.4-.08.4-.2,0-.35-.2-.4-.27-.02-.03-1-1.26-2.03-2.56-1.16-1.45-2.38-2.98-2.48-3.08-.18-.17-3.24-4.01-3.34-4.14h-.1v3.69c0,1.55.13,4.26.17,4.59.07.65.17.97.62.97h.5c.12,0,.13.05.13.15v.37c0,.1-.02.13-.13.13-.17,0-1.16-.05-1.61-.05-.35,0-1.5.05-1.66.05-.07,0-.08-.03-.08-.12v-.43s.02-.1.1-.1h.57c.48,0,.66-.2.75-1.02.03-.32.07-2.21.07-5.18v-2.83Z"/><path class="cls-1" d="m161.75,17.64c-.2-.15-.3-.2-.38-.2-.1,0-.17.12-.27.28-.1.18-.18.2-.3.2-.1,0-.18-.08-.15-.27.07-.42.23-2.53.28-3.01.02-.1.05-.1.12-.1l.25.02c.07,0,.1.03.1.13.02.53.05,1.08.6,1.93.5.78,1.41,1.23,2.33,1.23,1,0,2.26-.62,2.26-2.11,0-1.71-1.23-2.35-2.56-2.81-.52-.18-1.71-.6-2.43-1.35-.55-.55-.83-1.33-.83-2.43,0-.83.52-1.65,1.03-2.13.6-.57,1.43-.8,2.33-.8.95,0,1.68.28,1.96.42.15.08.23.07.32-.02l.22-.2c.08-.07.13-.1.22-.1s.13.13.13.28c0,.58.22,2.28.23,2.65,0,.08-.02.12-.08.13l-.2.05s-.08,0-.1-.05c-.13-.48-.35-1.13-1.03-1.85-.45-.48-1.03-.72-1.81-.72-1.48,0-2.01,1.1-2.01,1.95,0,.47.1,1.02.52,1.45.48.48,1.41.85,1.9,1,1.15.37,2.08.65,2.68,1.38.43.52.73,1.17.73,2.26,0,1.96-1.2,3.64-3.39,3.64-1.16,0-1.98-.35-2.64-.87Z"/><path class="cls-1" d="m36.09,25.17c-.12.07-.2.13-.28.4-.86,2.64-2.41,3.9-4.41,4.41l-.03-.08c2.12-1.1,3.54-3.75,3.68-5.1-.39,0-2.57.36-3.07.5-.09.03-.55.21-.58.21-.21,0-.82-.53-.82-1.16,0-.21.06-.34.1-.44.41.49.51.62,1.08.62.66,0,3.06-.19,3.31-.33.07-.03.36-.24.43-.24.13,0,.63.5.74.61.09.09.14.16.14.28,0,.15-.03.16-.29.31Z"/><path class="cls-1" d="m42.29,26.64c-.06,0-.29-.03-.34-.03-.33-.03-.58-.04-.71-.04-.16,0-.32,0-.48.02v1.26s.04,1.1.04,1.15c0,.72-.24,1.06-.48,1.06-.18,0-.24-.13-.36-.39-.15-.33-.43-.51-.74-.74l.03-.08c.2.07.51.15.67.15.19,0,.25-.07.27-.26,0-.08,0-1.21.02-1.44-.37.54-1.2,1.51-2.82,2.05l-.02-.08c1.03-.6,1.99-1.74,2.54-2.61-.33.03-.88.1-1.22.24-.25.09-.27.1-.33.1-.11,0-.64-.41-.64-.79,0-.15.03-.26.06-.35.15.22.35.47.77.47.21,0,1.64-.1,1.65-.11-.02-1.04-.03-1.33-.59-1.4.18-.14.31-.23.5-.23.21,0,.91.3.91.46,0,.06-.02.09-.14.25-.1.14-.1.34-.1.78v.09c.55-.07.61-.08.74-.12.03,0,.33-.1.33-.1.15,0,.69.2.69.51,0,.19-.19.19-.24.19Z"/><path class="cls-1" d="m50.16,27.07c-.15,0-.36-.02-.39-.02-.5-.03-1.64-.03-2.25-.03-.09,0-1.8.03-2.4.2-.23.06-.26.07-.31.07-.29,0-.81-.66-.81-1.1,0-.2.13-.46.18-.57.28.67.44.7,1.4.7.53,0,3.53-.03,3.73-.1.06-.03.28-.09.34-.09.34,0,1.06.15,1.06.59,0,.21-.22.34-.55.34Z"/><path class="cls-1" d="m54.3,26.79c-.14,0-.21-.05-.47-.26-.85-.67-1.16-.8-1.61-.92.3-.06.63-.12,1.04-.12,1.1,0,1.46.49,1.46.84,0,.22-.12.46-.42.46Zm.68-1.99c-.16,0-.27-.09-.39-.2-.82-.74-1.1-.94-1.58-1.08.21-.03.43-.08.74-.08.91,0,1.62.38,1.62.88,0,.17-.09.47-.39.47Zm-.08,4.49c-.42.29-.46.33-.67.57-.02.03-.09.09-.2.09-.1,0-.99-.43-.99-1.35,0-.1.02-.16.04-.27.2.27.53.51.67.51.62,0,3.57-2.34,4.73-3.91l.06.03c-.45,1.39-1.87,3.07-3.65,4.34Z"/><path class="cls-1" d="m66.38,27.27c-.15,0-.36-.02-.39-.02-.5-.03-1.64-.03-2.25-.03-.09,0-1.8.03-2.4.2-.23.06-.26.07-.31.07-.29,0-.81-.66-.81-1.1,0-.2.13-.46.18-.57.28.67.44.7,1.4.7.53,0,3.53-.03,3.73-.1.06-.03.28-.09.34-.09.34,0,1.06.15,1.06.59,0,.21-.22.34-.55.34Z"/><path class="cls-1" d="m72.57,28.83c-.6-1-1.16-1.44-1.37-1.61-1.52,1.87-3.1,2.5-3.96,2.7v-.05c1.99-1.1,3.99-3.55,4.44-5.13-1.48.34-1.87.44-2.11.57-.3.17-.33.19-.4.19-.21,0-.72-.51-.72-1.1,0-.21.03-.29.08-.4.33.57.54.59.88.59.07,0,2.08-.17,2.37-.39.03-.03.21-.19.23-.21.03-.03.08-.03.11-.03.08,0,.12.03.54.39q.34.29.34.39c0,.09-.03.1-.27.23-.13.07-.16.09-.21.21-.22.43-.56,1.08-1.2,1.88.29.12,2.49,1.04,2.49,2.13,0,.42-.26.6-.47.6-.23,0-.35-.21-.63-.7-.05-.09-.1-.18-.16-.27m.77-4.46c-.17,0-.21-.06-.42-.35-.23-.32-.52-.58-.87-.75.34-.02,1.58.07,1.58.74,0,.21-.12.37-.29.37Zm.84-.45c-.14,0-.16-.03-.41-.33-.06-.08-.48-.53-.92-.76.58-.03,1.61.14,1.61.78,0,.21-.16.32-.28.32Z"/><path class="cls-1" d="m77.92,25.36c-.17,0-.26-.09-.62-.49-.41-.46-.84-.81-1.38-1.02.18-.03.37-.07.64-.07.48,0,1.81.15,1.81,1.06,0,.33-.26.51-.45.51Zm1.31,2.67c-.25.21-1.54,1.22-1.59,1.27-.24.25-.27.27-.39.27-.37,0-1.07-.82-1.07-1.37,0-.16.05-.3.09-.4.36.6.66.61.69.61.24,0,1.45-.8,2.15-1.32,1.05-.78,2.02-1.74,2.71-2.59l.05.03c-.23.78-1.08,2.24-2.64,3.51Z"/><path class="cls-1" d="m88.34,29.8c-.23,0-.35-.21-.63-.7-.66-1.19-1.29-1.7-1.52-1.88-1.52,1.87-3.1,2.5-3.96,2.7v-.05c1.99-1.1,3.99-3.55,4.44-5.13-1.48.34-1.87.44-2.11.57-.3.17-.33.19-.4.19-.21,0-.72-.51-.72-1.1,0-.21.03-.29.08-.4.33.57.54.59.88.59.07,0,2.08-.17,2.37-.39.03-.03.21-.19.23-.21.03-.03.08-.03.11-.03.08,0,.12.03.54.39q.34.29.34.39c0,.09-.03.1-.27.23-.13.07-.16.09-.21.21-.22.43-.56,1.08-1.2,1.88.29.12,2.49,1.04,2.49,2.13,0,.42-.26.6-.47.6Zm0-5.43c-.17,0-.21-.06-.42-.35-.23-.32-.52-.58-.87-.75.34-.02,1.58.07,1.58.74,0,.21-.12.37-.29.37Zm.84-.45c-.14,0-.16-.03-.41-.33-.06-.08-.48-.53-.92-.76.58-.03,1.61.14,1.61.78,0,.21-.16.32-.28.32Z"/><path class="cls-1" d="m97.77,30.54c-1.46-.28-2.5-1.16-2.95-2.5h-.04c-.57,1.65-2.07,2.41-3.83,2.47v-.07c1.23-.24,2.52-1.23,2.89-2.41h-1.9c-.59,0-.76.03-.92.06l-.14-.32c.4.03.81.05,1.22.05h1.8c.11-.43.15-.87.12-1.16h-2.14c-.59,0-.76.03-.92.06l-.14-.32c.4.03.81.05,1.22.05h2.05v-1.01h-1.36c-.6,0-.76.03-.92.06l-.15-.32c.4.03.81.05,1.22.05h1.21v-.88h-1.85c-.59,0-.75.03-.92.05l-.14-.31c.4.03.81.05,1.22.05h.86c-.1-.08-.11-.11-.24-.43-.15-.36-.34-.69-.67-.9l.02-.07c.39.04,1.68.19,1.68.97,0,.04,0,.27-.21.43h1.13c.03-.05.43-.86.47-1.57l1.07.53c.09.04.11.1.11.14,0,.15-.12.15-.35.19-.32.26-.37.28-1.02.71h1.57l.38-.57s.09-.1.13-.1c.06,0,.13.06.16.09l.59.56s.09.09.09.14c0,.09-.09.09-.14.09h-3.03v.88h1.19l.33-.48c.04-.06.08-.11.13-.11s.12.05.15.09l.54.49s.09.07.09.13c0,.09-.09.09-.13.09h-2.3v1.01h2.14l.39-.56c.04-.06.09-.11.14-.11s.1.05.15.09l.64.56s.09.09.09.14c0,.09-.09.09-.13.09h-3.82l.5.12c.13.03.17.07.17.14,0,.11-.09.15-.31.27,0,.17-.03.33-.09.63h2.17l.37-.54c.04-.06.08-.11.13-.11.04,0,.1.04.16.09l.63.53s.09.09.09.14c0,.09-.09.09-.14.09h-3.25c.45.63,1.5,1.44,3.58,1.48v.07c-.51.26-.74.72-.81.95Z"/><path class="cls-1" d="m106.64,28.39c-.15-.04-.4-.12-.87-.39-.03.09-.1.15-.22.27,0,.27.07,1.48.07,1.72,0,.16,0,.56-.58.56-.38,0-.35-.33-.34-.47h-2.56c0,.17.03.54-.54.54-.36,0-.36-.21-.36-.33,0-.09.03-.99.04-1.17,0-.51,0-.61,0-1.16-.89.44-1.47.59-1.73.66l-.02-.07c1.83-.95,3.25-2.75,3.42-3.3l.99.41c.07.03.14.09.14.16,0,.11-.11.15-.18.15,1.21.93,2.65,1.39,3.54,1.42v.07c-.43.17-.66.55-.79.92Zm.31-3.82c-.23,0-.33,0-.44.04-.24.1-.39.16-.86.35l-.04-.06c.09-.21.27-.69.32-.87h-5c.03,1.23-.76,1.23-.8,1.23-.21,0-.45-.15-.45-.44,0-.24.1-.32.44-.56.09-.07.5-.37.64-.85h.07c.05.19.07.34.08.41h2.07c0-.28-.02-.68-.15-1.06l1.18.23c.07.02.13.04.13.11,0,.12-.21.24-.28.28,0,.06,0,.35,0,.44h2.03l.27-.32s.09-.09.13-.09c.06,0,.08.03.17.11l.75.72s.04.08.04.11c0,.21-.23.21-.32.21Zm-4.33.55c-.69.67-1.46,1.09-2.49,1.42l-.03-.06c1.15-.83,1.79-1.84,1.88-2.22l.97.57c.05.03.08.07.08.11,0,.13-.13.15-.4.17Zm1.08.97c-.89.97-1.62,1.4-1.88,1.57l.44.18h2.37l.27-.31s.05-.07.08-.09c-.63-.53-1.07-1.03-1.27-1.35Zm1,1.95h-2.58v1.84h2.58v-1.84Zm1.18-1.74c-.25,0-.33-.11-.61-.5-.55-.75-1.01-1.07-1.24-1.22l.03-.07c1.33.22,2.28.7,2.28,1.3,0,.21-.13.49-.45.49Z"/><path class="cls-1" d="m115.26,30.62c-.38-.07-1.56-.3-2.7-1.28-.92.74-2.07,1.13-3.25,1.29v-.06c1.46-.6,2.24-1.26,2.76-1.74-.39-.45-.94-1.19-1.22-2.35-.23,0-.43.02-.64.05-.08,1.28-.43,2.7-1.85,4.07l-.06-.04c1-1.66,1.05-3.82,1.05-4.68,0-.23,0-1.37-.17-2.14l1.16.51h1.48c-.03-1.04-.08-1.17-.21-1.52l1.28.29c.08.02.18.07.18.13,0,.09-.15.19-.31.29,0,.06,0,.54,0,.81h1.58l.32-.29c.09-.08.13-.12.17-.12.06,0,.1.05.16.11l.77.76c.07.06.08.14.08.18,0,.18-.15.19-.51.21-.22.02-.3.04-.4.09-.35.19-.56.29-1.09.52l-.05-.05c.44-.73.53-1.01.59-1.21h-1.62c0,.45,0,1.78,0,1.83h.8l.26-.27c.07-.07.11-.12.15-.12s.08.03.14.08l.72.56c.05.03.09.11.09.17,0,.1-.25.21-.43.28-.43.8-.82,1.3-1.29,1.79.92.45,1.95.66,2.98.71v.08c-.68.29-.84.78-.92,1.06Zm-3.44-6.17h-1.57c0,.52,0,.98-.03,1.8.31.02.74.03,1.05.03h.55c0-.44,0-1.5,0-1.83Zm-.75,2.04c.39.94.99,1.52,1.46,1.87.71-.85.92-1.49,1.04-1.87h-2.49Z"/><path class="cls-1" d="m124.66,24.64s-.08,0-.33-.03c-.09.04-.14.06-.24.1.05.13.14.3.27.37.09.04.15.08.15.21,0,.33-.49.36-.77.38l.55.36c.11.08.13.09.13.14,0,.06,0,.09-.27.24,0,.12.03.65.03.76,0,.33-.25.45-.57.44l.35.21c.08.04.14.09.14.17,0,.07,0,.11-.26.27,0,.21.02,1.16.02,1.35,0,.41,0,1.02-1.12,1.07-.09-.58-.57-.84-.75-.93v-.07c.41.05.66.06.79.06.21,0,.27-.02.27-.21,0-.05,0-.26,0-.3h-2.53c0,.17.02.92,0,1.05-.03.25-.32.33-.53.33-.28,0-.32-.13-.32-.26,0-.34.05-1.88.05-2.19,0-.21,0-.42-.02-.54-.3.02-.35-.07-.35-.24,0-.15.03-.81.03-.94,0-.37-.02-.63-.03-.83l.89.33h3.03l.23-.22.03-.03c-.45,0-1.93,0-2.27-.03-.57-.05-.57-.36-.57-.67l-.52.03c-.51.03-.69.07-.92.13l-.16-.31c.49.02,1.16-.03,1.22-.03l.39-.03c0-.25,0-.27,0-.55h-1.79c0,2.69,0,4.89-1.63,6.32l-.06-.05c.83-1.25.85-4.28.85-5.03,0-.57-.02-1.31-.11-1.87l1.05.43h1.67c0-.82-.03-.99-.13-1.3l1,.2c.09.02.18.04.18.13,0,.09-.12.16-.21.21,0,.05,0,.07,0,.11h1.48l.25-.39c.03-.06.08-.11.13-.11.03,0,.09.04.15.09l.57.39c.05.03.09.09.09.14,0,.09-.07.09-.13.09h-2.55s0,.34,0,.45h2.1l.26-.21c.07-.06.1-.09.15-.09s.09.03.17.1l.6.51c.06.05.1.09.1.15,0,.13-.13.15-.21.15Zm-1.31,2.68h-3.17c0,.07,0,.15-.18.22l.61.2h2.38l.17-.19c.08-.09.1-.11.14-.11.03,0,.05,0,.07.02-.02-.05-.02-.07-.02-.14Zm-2-1.2h-1.16v.36h1.16v-.36Zm0,.57h-1.16v.43h1.16v-.43Zm1.72,1.26h-2.53v.41h2.53v-.41Zm0,.62h-2.53v.45h2.53v-.45Zm.35-3.64l-.03-.06c.06-.14.15-.39.2-.64h-2.41l.34.1c.11.03.14.07.14.12,0,.07-.08.11-.2.16v.11l.69-.04.21-.31c.06-.09.08-.11.13-.11.03,0,.09.03.16.08l.44.26c.06.03.09.07.09.12,0,.08-.07.09-.12.09l-1.61.12c0,.1.02.15.09.19.08.04,1.1.04,1.28.04.92,0,.99,0,1.1-.4-.13.04-.25.09-.53.17Zm-.07,1.2h-1.22v.36h1.22v-.36Zm0,.57h-1.22v.43h1.22v-.43Z"/><path class="cls-1" d="m129.65,25.49h-1.15v.67c.38.09,1.19.29,1.19.88,0,.25-.2.41-.43.41-.29,0-.34-.15-.51-.59-.03-.09-.12-.33-.26-.51,0,.11,0,.59,0,.69,0,.44.03,2.78.03,2.95,0,.29,0,.65-.56.65-.37,0-.39-.23-.39-.41,0-.1.03-.58.04-.68.02-.38.04-2.05.05-2.39-.29.45-.96,1.29-1.69,1.73l-.04-.04c.57-.71,1.34-2.3,1.63-3.37h-.48c-.52,0-.71.02-.92.05l-.14-.31c.51.04,1.12.05,1.22.05h.44v-1.34c-.53.09-1.09.15-1.61.14v-.07c.92-.27,2.34-.91,2.66-1.31l.85.69s.07.07.07.11c0,.05-.04.12-.16.12-.08,0-.15-.02-.21-.03-.18.06-.33.1-.77.21v1.49s.09,0,.09,0l.27-.51c.03-.05.08-.11.14-.11.04,0,.11.05.15.09l.54.51s.09.08.09.13c0,.08-.07.09-.13.09Zm4.22,1.8l-1.36.34c0,.41.04,2.25.04,2.47,0,.24-.08.57-.61.57-.34,0-.34-.21-.34-.52s.02-1.82.02-2.3l-1.6.4c-.54.14-.7.2-.89.28l-.21-.27c.36-.05.82-.15,1.19-.25l1.51-.38c0-.6.02-1.19.02-1.79,0-2.42-.07-2.63-.21-3.1l1.25.29c.09.02.16.04.16.15,0,.09-.02.09-.33.3-.02,1.4-.02,2.23-.02,2.31,0,.51,0,.86.03,1.61l.36-.09.21-.63c.02-.06.06-.15.13-.15.03,0,.1.03.14.06l.53.45c.07.06.11.09.11.14,0,.04-.03.08-.11.09Zm-3.29-.32c-.27,0-.31-.14-.43-.54-.15-.47-.39-.75-.49-.85v-.04c.96.13,1.44.51,1.44.95,0,.31-.25.48-.52.48Zm.19-1.95c-.28,0-.36-.17-.53-.59-.21-.5-.32-.62-.49-.78l.02-.06c.28.05.76.13,1.03.3.32.21.45.51.45.69,0,.28-.25.45-.47.45Z"/><path class="cls-1" d="m140.39,25.46c-.19.08-.21.09-.51.63-.82,1.53-1.78,2.57-3.19,3.38-.28.16-1.02.57-1.69.69l-.03-.06c1.75-.96,3.64-3.1,4.35-4.94-.21.03-1.05.15-1.08.15-.03,0-.28.08-.32.08-.09,0-.21-.06-.38-.15-.59.7-1.16,1.37-2.4,1.99l-.05-.06c1.72-1.79,2.19-3.08,2.19-3.16,0-.19-.42-.43-.53-.49.27-.09.46-.09.5-.09.38,0,1.19.43,1.19.74,0,.09-.03.11-.25.31-.09.08-.15.15-.32.36.15,0,1.18-.03,1.45-.16.08-.04.42-.28.47-.28.09,0,.34.21.45.32.4.35.45.39.45.48,0,.13-.03.15-.32.27Z"/><path class="cls-1" d="m143.53,24.51c-.05.18-.11.39-.11.91,0,.22.03,1.2.03,1.4,0,.17,0,.74-.37.74-.26,0-.55-.38-.55-.81,0-.09.05-.43.06-.5.02-.19.04-.56.04-.98,0-.99,0-1.09-.79-1.29.14-.09.35-.23.63-.23.33,0,1.1.25,1.1.55,0,.04-.02.1-.04.21Zm3.01-.07c-.02.16-.06,1.74-.08,2.06-.06,1.43-.45,2.23-1.16,2.91-.45.45-1.01.78-1.64.91l-.04-.05c2.01-1.33,2.01-3.49,2.01-5.09,0-1.32-.03-1.45-.84-1.6.15-.12.37-.28.73-.28.43,0,1.16.27,1.16.54,0,.1-.14.51-.15.6Z"/><path class="cls-1" d="m154.88,28.58c-.08,0-.7-.09-.81-.11-.39-.06-.78-.09-1.17-.09-.62,0-2.26.11-3.11.41-.35.12-.39.14-.5.14-.28,0-.99-.68-.99-1.2,0-.15.04-.27.08-.35.27.46.59.6,1.09.6.12,0,2.3-.19,2.72-.21.5-.03,1.28-.08,1.49-.14.07-.02.37-.13.43-.13.25,0,1.11.33,1.11.75,0,.21-.11.33-.34.33Zm-1.51-3.31c-2.11.1-2.34.12-2.71.21-.22.05-.24.06-.32.06-.32,0-.91-.39-.91-.96,0-.06,0-.1.02-.17.39.37.91.37,1.12.37.53,0,1.53-.1,2.07-.23.08-.02.42-.15.5-.15.2,0,.91.14.91.51,0,.33-.34.34-.68.36Z"/><path class="cls-1" d="m157.4,27.16c-.25,0-.35-.24-.44-.46-.17-.44-.41-.75-.62-.97,1.07.15,1.4.62,1.4,1,0,.27-.16.43-.34.43Zm3.55-.83c-.05.09-.25.53-.29.62-1.03,1.98-2.17,2.72-3.72,3.17v-.07c1.02-.52,1.87-1.35,2.47-2.35.45-.74.87-1.66.87-1.86,0-.13-.18-.3-.47-.45.11-.03.26-.06.42-.06.45,0,.98.51.98.64,0,.07-.23.3-.27.36Zm-2.08.4c-.26,0-.31-.15-.43-.49-.19-.54-.43-.82-.53-.94.43.09,1.29.45,1.29,1.01,0,.15-.07.42-.33.42Z"/><path class="cls-1" d="m167.68,25.46c-.19.08-.21.09-.51.63-.82,1.53-1.78,2.57-3.19,3.38-.28.16-1.02.57-1.69.69l-.03-.06c1.75-.96,3.64-3.1,4.35-4.94-.21.03-1.05.15-1.08.15-.03,0-.28.08-.32.08-.09,0-.21-.06-.38-.15-.59.7-1.16,1.37-2.4,1.99l-.05-.06c1.72-1.79,2.19-3.08,2.19-3.16,0-.19-.42-.43-.53-.49.27-.09.46-.09.5-.09.38,0,1.19.43,1.19.74,0,.09-.03.11-.25.31-.09.08-.15.15-.32.36.15,0,1.18-.03,1.45-.16.08-.04.42-.28.47-.28.09,0,.34.21.45.32.4.35.45.39.45.48,0,.13-.03.15-.32.27Z"/></g></svg>